<?xml version="1.0" encoding="UTF-8"?>
<svg id="katman_2" data-name="katman 2" xmlns="http://www.w3.org/2000/svg" viewBox="0 0 447.24 265.91">
  <defs>
    <style>
      .cls-1 {
        fill: #223260;
      }

      .cls-2 {
        fill: #e9562d;
      }
    </style>
  </defs>
  <g id="katman_1" data-name="katman 1">
    <g>
      <g>
        <path class="cls-2" d="M391.17,1.61c5.02-2,15.44-1.64,25.32-1.34,9.72.95,26.16-1.19,29.77,4.95,2.07,29.46.1,155.22.73,185.09-.09,7.91-2.57,7.28-7.22,1.91-12.14-14.94-33.82-44.43-46.31-60.57-5.08-7.04-8.52-9.94-8.58-17.81-.04-21.78.82-75.56,1.01-99.77.13-4.81-.02-10.32,4.99-12.33l.29-.12ZM431.5,13.68c-8.25-.55-21.61,0-29.05-.19-2.81.09-3.57-.38-4.81.99-1.22,4.43-.09,56.06-.46,83.94.24,9.99-.5,14.12.35,17.09,3.2,4.94,12.96,18.29,14.67,20.85,4.26,5.36,14.19,16.81,17.17,20.44.94,1.5,3.45.93,3.53-.56-.05-7.53.04-89.62,0-114.49,0-14.38,0-24.7,0-26.34,0-.62-.56-1.1-1.19-1.61l-.21-.12Z"/>
        <g>
          <path class="cls-1" d="M2.26,113.62C9.26,56.21,57.7,10.36,114.51,1.73c34.59-1.7,99.24.77,125.3.33,7.53-.97,10.71,4.57,15.16,9.79,64.21,80.78,127.19,164.57,189.63,246.57,4.34,6.5-.36,7.04-5.13,7.1-16.78-.12-54.37.18-69.47-.07-1.21-.05-2.04-.27-2.73-1.15-1.75-2.2-6.82-8.87-14.25-18.53-36.03-46.93-126.02-164.14-137.01-178.44-1.99-2.4-3.64-2.47-8.09-3.28-20.32-2.14-45.19-.27-65.66,0-7.51.34-14.96,1.35-22.34,3.16-32.53,6.67-53.57,36.15-55.64,67.91.02,20.88,10.19,42.01,27.21,54.01,9.54,7.02,21.66,10.29,32.71,12.71,17.55,3.99,35.9.94,53.91,1.05,2.73-.16,6.33-.03,8.18-1.21,2.19-2.05-1.94-5.67-3.25-7.65-6.22-7.38-11.53-17.05-18.02-24.09-4.61-4.95-11.78-5.25-18.3-5.17-10.92.19-20.98.21-30.11-5.19-21.6-11.39-20.15-45.08,1.95-54.79,5.77-2.88,11.95-3.69,18.29-3.57,12.57.3,38.11-.63,52.95.39,4.84.76,8.27,5.5,11.53,9.46,38.27,45.54,70.64,95.36,108.19,140.86,1.95,2.52,4.27,6,5.4,8.37,1.9,3.87.91,5.2-1.71,5.2-4.5.01-14.92,0-28.76,0-64.66-1.17-151.39,2.6-179.98-1.92C36.34,250.52-10.91,182.3,2.19,114.09l.07-.47ZM122.37,13.98C59.39,20.95,19.26,68.57,13.66,130.75c-1.16,9.61,1.63,20.22,3.08,29.02,4.13,21.89,13.51,39.14,30.01,57.68,9.99,10.92,22.53,19.88,36.96,24.97,4.79,1.64,13.06,4.02,18.52,5.57,7.04,1.98,15.53,4.16,22.65,5.01,30.43,3.65.39.54,1.42.87.33.11.73.21,1.18.29,54.54.25,110,1.22,164.23-.79.72-.36.89-.31.76.6-.12.87-.41,2.53-.63,3.09-.26.71-.52-.04-.95-1.55-1.56-5.48-4.3-10.42-7.74-14.83-31.09-41.64-63.45-82.48-95.02-123.77-1.82-2.37-2.24-1.94-4.83-1.98-11.54.02-48.1-.45-54.92-.25-9.34,3.19-14.18,9.96-13.34,20.35,1.33,25.98,35.89,12.57,54.58,17.7,4.98,6.2,34.91,46.02,39.25,51.67,1.72,2.88,5.72,8.63,6.7,11.11-6.89.39-90.7,0-96.86.13C10.26,192.98,40.72,43.17,147.02,49.55c22.8-.22,46.76,1.79,69.42.86,5.81-1.05,8.98,7.21,11.32,11.11.59.87.81,1.06,1.81,1.36,2.03.22,2.05,2.08,4.32,4.71,8.84,12.16,22.25,31.5,32.13,44.43,37.35,44.85,71.04,92.89,106.59,139.18,1.49,1.83,3.31,2.94,5.56,3.23,12.85,1.27,27.88-.87,41.15-.33.65,0,1.2-.03,1.56-.15.61-.19.74-.59.54-1.09-12.48-16.45-104.1-136.97-153.51-202.19-15.5-20.43-26.16-34.47-27.52-36.27-.44-.49-.86-.44-2.08-.83-34.46-3.64-80.49-2.83-115.45.28l-.49.13Z"/>
          <path class="cls-1" d="M138.95,254.85c-3.65,1.32-11.37.51-14.78-1.08-.91-.37-.65-.43.93-.3,4.04.41,10.23.76,13.87,1.29l-.02.09Z"/>
        </g>
      </g>
      <rect class="cls-2" x="386.04" width="60.65" height="13.81"/>
      <rect class="cls-1" x="132.48" y="50.43" width="88.11" height="6.86" transform="translate(-.85 2.86) rotate(-.93)"/>
      <polygon class="cls-1" points="273.09 138.82 211.4 56.62 220.54 49.72 282.24 131.93 273.09 138.82"/>
      <rect class="cls-1" x="153.85" y="161.01" width="6.95" height="90.76" transform="translate(-51.31 360.72) rotate(-89.17)"/>
    </g>
  </g>
</svg>